<?xml version="1.0" encoding="UTF-8" standalone="no"?>
<svg
   xmlns:dc="http://purl.org/dc/elements/1.1/"
   xmlns:cc="http://creativecommons.org/ns#"
   xmlns:rdf="http://www.w3.org/1999/02/22-rdf-syntax-ns#"
   xmlns:svg="http://www.w3.org/2000/svg"
   xmlns="http://www.w3.org/2000/svg"
   viewBox="0 0 34.666668 34.666668"
   height="34.666668"
   width="34.666668"
   xml:space="preserve"
   id="svg2"
   version="1.1"><metadata
     id="metadata8"><rdf:RDF><cc:Work
         rdf:about=""><dc:format>image/svg+xml</dc:format><dc:type
           rdf:resource="http://purl.org/dc/dcmitype/StillImage" /></cc:Work></rdf:RDF></metadata><defs
     id="defs6" /><g
     transform="matrix(1.3333333,0,0,-1.3333333,0,34.666667)"
     id="g10"><g
       transform="scale(0.1)"
       id="g12"><path
         id="path14"
         style="fill:#38b580;fill-opacity:1;fill-rule:nonzero;stroke:none"
         d="M 258.867,130 C 258.867,58.8281 201.172,1.13281 130,1.13281 58.832,1.13281 1.13672,58.8281 1.13672,130 1.13672,201.168 58.832,258.863 130,258.863 c 71.172,0 128.867,-57.695 128.867,-128.863" /><path
         id="path16"
         style="fill:#ffffff;fill-opacity:1;fill-rule:nonzero;stroke:none"
         d="m 189.441,93.2539 c 0,-21.9453 -15.039,-43.8516 -47.546,-50.332 V 28.0195 c 0,-2.7851 -2.254,-5.0234 -5.02,-5.0234 h -13.746 c -2.774,0 -5.016,2.2383 -5.016,5.0234 v 12.9258 c -16.531,0.5977 -34.5192,5.0899 -44.8396,11.3789 -2.2773,1.3985 -3.25,3.9766 -2.4375,6.3672 l 6.5625,19.0899 c 0.4493,1.2812 1.5157,2.3164 2.8985,2.7929 1.4062,0.4492 2.9492,0.3047 4.207,-0.4375 L 86,79.2383 c 10.4688,-6.1406 24.055,-9.668 37.316,-9.668 19.289,0 30.832,8.2344 30.832,22 0,10.2777 -4.918,18.3247 -29.3,26.6837 -34.0511,11.351 -50.6253,28.16 -50.6253,51.359 0,23.746 17.3945,41.453 43.8903,47.301 v 15.074 c 0,2.774 2.242,5.016 5.016,5.016 h 13.746 c 2.766,0 5.02,-2.242 5.02,-5.016 v -13.027 c 14.597,-0.535 28.105,-3.473 37.453,-8.469 2.507,-1.34 3.632,-4.121 2.703,-6.648 l -6.836,-18.555 c -0.481,-1.242 -1.531,-2.226 -2.902,-2.691 -1.375,-0.446 -2.879,-0.293 -4.11,0.406 l -1.465,0.809 c -5.832,3.32 -16.797,6.851 -30.074,6.851 -20.039,0 -27.152,-10.043 -27.152,-18.633 0,-11.433 7.289,-17.519 31.218,-25.996 24.106,-8.722 48.711,-21.816 48.711,-52.7811" /></g></g></svg>